<svg xmlns="http://www.w3.org/2000/svg" width="32" height="32" viewBox="0 0 24 24"><path fill="#888888" d="M12 15.575q.2 0 .375-.062t.325-.213l2.6-2.6q.275-.275.275-.7t-.275-.7q-.275-.275-.7-.275t-.7.275l-.9.9V9q0-.425-.288-.713T12 8q-.425 0-.713.288T11 9v3.2l-.9-.9q-.275-.275-.7-.275t-.7.275q-.275.275-.275.7t.275.7l2.6 2.6q.15.15.325.212t.375.063ZM12 22q-2.075 0-3.9-.788t-3.175-2.137q-1.35-1.35-2.137-3.175T2 12q0-2.075.788-3.9t2.137-3.175q1.35-1.35 3.175-2.137T12 2q2.075 0 3.9.788t3.175 2.137q1.35 1.35 2.138 3.175T22 12q0 2.075-.788 3.9t-2.137 3.175q-1.35 1.35-3.175 2.138T12 22Zm0-2q3.325 0 5.663-2.337T20 12q0-3.325-2.337-5.663T12 4Q8.675 4 6.337 6.337T4 12q0 3.325 2.337 5.663T12 20Zm0-8Z"/></svg>